<svg aria-hidden="true" style="position: absolute; width: 0; height: 0; overflow: hidden;" version="1.1" xmlns="http://www.w3.org/2000/svg" xmlns:xlink="http://www.w3.org/1999/xlink">
<defs>
  <symbol id="icon-arrow-right" viewBox="0 0 32 32">
    <path d="M0 16.604c0-0.587 0.476-1.062 1.062-1.062h29.876c0.587 0 1.062 0.476 1.062 1.062s-0.476 1.062-1.062 1.062h-29.876c-0.587 0-1.062-0.476-1.062-1.062z"></path>
    <path d="M16.245 1.911c0.415-0.415 1.087-0.415 1.502 0l13.942 13.942c0.415 0.415 0.415 1.087 0 1.502l-13.942 13.942c-0.415 0.415-1.088 0.415-1.502 0s-0.415-1.087 0-1.502l13.191-13.191-13.191-13.191c-0.415-0.415-0.415-1.087 0-1.502z"></path>
  </symbol>
  <symbol id="icon-multiple" viewBox="0 0 32 32">
    <path d="M6.188 21.021h-0.569c-2.489 0-4.551-1.991-4.551-4.487v-10.98c0-2.489 2.062-4.487 4.558-4.487h11.072c2.496 0 4.558 1.998 4.558 4.487v0.398c3.193 0 5.092 1.7 5.092 5.020 2.525 0 4.587 1.963 4.587 4.487v10.944c0 2.496-2.027 4.523-4.523 4.523h-11.179c-2.46 0-4.487-2.027-4.487-4.523v-0.533c-2.596-0.235-4.558-1.7-4.558-4.459v-0.391zM24.648 10.981v-0.533c0-1.564-1.294-2.795-2.83-2.795h-11.108c-1.564 0-2.859 1.23-2.859 2.795v10.972c0 1.799 1.23 2.596 2.894 2.759v-8.711c0-2.46 2.027-4.487 4.487-4.487h9.415zM26.412 12.645h-11.179c-1.529 0-2.795 1.266-2.795 2.83v10.944c0 1.564 1.266 2.83 2.795 2.83h11.172c1.564 0 2.83-1.266 2.83-2.83v-10.951c0-1.564-1.259-2.823-2.823-2.823zM19.557 5.96v-0.398c0-1.564-1.294-2.795-2.859-2.795h-11.072c-1.564 0-2.859 1.23-2.859 2.795v10.972c0 1.564 1.294 2.795 2.859 2.795h0.569v-8.882c0-2.496 2.062-4.487 4.523-4.487h8.839z"></path>
  </symbol>
  <symbol id="icon-chevron-right" viewBox="0 0 20 32">
    <path d="M0.355 0.325c0.473-0.434 1.241-0.434 1.714 0l16.242 14.889c0.473 0.434 0.473 1.137 0 1.571l-16.242 14.889c-0.473 0.434-1.241 0.434-1.714 0s-0.473-1.137 0-1.571l15.385-14.103-15.385-14.103c-0.473-0.434-0.473-1.137 0-1.571z"></path>
  </symbol>
  <symbol id="icon-chevron-down" viewBox="0 0 32 32">
    <path d="M0.317 8.304c0.423-0.406 1.108-0.406 1.531-0l14.152 13.582 14.152-13.582c0.423-0.406 1.108-0.406 1.531 0s0.423 1.064 0 1.469l-14.214 13.642c-0 0-0 0-0.001 0.001-0.193 0.185-0.422 0.332-0.672 0.432l-0.001 0c-0.252 0.1-0.523 0.152-0.795 0.152s-0.543-0.052-0.795-0.152l-0.001-0c-0.25-0.1-0.479-0.246-0.672-0.432-0-0-0-0-0.001-0.001l-14.214-13.642c-0.423-0.406-0.423-1.064-0-1.469zM15.937 21.947c0-0 0-0 0.001-0.001l-0.001 0.001z"></path>
  </symbol>
  <symbol id="icon-play-triangle" viewBox="0 0 32 32">
    <path d="M31.093 14.605l-28.445-14.4c-0.551-0.278-1.223-0.272-1.767 0.013-0.548 0.288-0.882 0.813-0.882 1.382v28.8c0 0.57 0.334 1.094 0.882 1.382 0.277 0.144 0.587 0.218 0.896 0.218 0.299 0 0.601-0.067 0.871-0.205l28.445-14.4c0.558-0.285 0.907-0.816 0.907-1.395s-0.348-1.11-0.907-1.395z"></path>
  </symbol>
  <symbol id="icon-check-mark" viewBox="0 0 32 32">
    <path d="M31.665 5.668c0.446 0.446 0.446 1.17 0 1.616l-20.572 20.571c-0.446 0.446-1.17 0.446-1.616 0l-9.143-9.143c-0.446-0.446-0.446-1.17 0-1.616s1.17-0.446 1.616 0l8.335 8.335 19.763-19.763c0.446-0.446 1.17-0.446 1.616 0z"></path>
  </symbol>
  <symbol id="icon-info" viewBox="0 0 32 32">
    <path d="M0 16c0-8.837 7.163-16 16-16s16 7.163 16 16c0 8.837-7.163 16-16 16s-16-7.163-16-16zM16 2.128c-7.661 0-13.872 6.211-13.872 13.872s6.211 13.872 13.872 13.872c7.661 0 13.872-6.211 13.872-13.872s-6.211-13.872-13.872-13.872z"></path>
    <path d="M12.529 23.077c0-0.588 0.476-1.064 1.064-1.064h4.814c0.588 0 1.064 0.476 1.064 1.064s-0.476 1.064-1.064 1.064h-4.814c-0.588 0-1.064-0.476-1.064-1.064z"></path>
    <path d="M17.277 9.615c0 0.882-0.715 1.596-1.596 1.596s-1.596-0.715-1.596-1.596c0-0.882 0.715-1.596 1.596-1.596s1.596 0.715 1.596 1.596z"></path>
    <path d="M12.808 13.872c0-0.588 0.476-1.064 1.064-1.064h2.128c0.588 0 1.064 0.476 1.064 1.064v8.513c0 0.588-0.476 1.064-1.064 1.064s-1.064-0.476-1.064-1.064v-7.449h-1.064c-0.588 0-1.064-0.476-1.064-1.064z"></path>
  </symbol>
  <symbol id="icon-exit" viewBox="0 0 32 32">
    <path d="M26.839 3.495c0.458-0.457 1.202-0.457 1.66 0 0.458 0.458 0.458 1.202 0 1.66l-10.844 10.844 10.844 10.844c0.458 0.458 0.458 1.202 0 1.66s-1.202 0.458-1.66 0l-10.844-10.844-10.84 10.844c-0.458 0.458-1.202 0.458-1.66 0s-0.458-1.202 0-1.66l10.84-10.844-10.844-10.844c-0.457-0.459-0.458-1.202 0-1.66s1.202-0.457 1.66 0l10.844 10.844 10.844-10.844z"></path>
  </symbol>
  <symbol id="icon-search" viewBox="0 0 32 32">
    <path d="M20.922 20.921c0.405-0.405 1.061-0.405 1.466 0l9.309 9.31c0.405 0.405 0.405 1.061 0 1.466s-1.061 0.405-1.466 0l-9.309-9.31c-0.405-0.405-0.405-1.061 0-1.466z"></path>
    <path d="M12.955 23.838c-6.010 0-10.883-4.872-10.883-10.883s4.872-10.883 10.883-10.883c6.010 0 10.883 4.872 10.883 10.883s-4.872 10.883-10.883 10.883zM12.955 25.911c7.155 0 12.956-5.8 12.956-12.956s-5.8-12.955-12.956-12.955c-7.155 0-12.955 5.8-12.955 12.955s5.8 12.956 12.955 12.956z"></path>
  </symbol>
</defs>
</svg>
