<svg aria-hidden="true" style="position: absolute; width: 0; height: 0; overflow: hidden;" version="1.1" xmlns="http://www.w3.org/2000/svg" xmlns:xlink="http://www.w3.org/1999/xlink">
<defs>
  <symbol id="icon-arrow-right" viewBox="0 0 32 32">
    <path d="M0 16.604c0-0.587 0.476-1.062 1.062-1.062h29.876c0.587 0 1.062 0.476 1.062 1.062s-0.476 1.062-1.062 1.062h-29.876c-0.587 0-1.062-0.476-1.062-1.062z"></path>
    <path d="M16.245 1.911c0.415-0.415 1.087-0.415 1.502 0l13.942 13.942c0.415 0.415 0.415 1.087 0 1.502l-13.942 13.942c-0.415 0.415-1.088 0.415-1.502 0s-0.415-1.087 0-1.502l13.191-13.191-13.191-13.191c-0.415-0.415-0.415-1.087 0-1.502z"></path>
  </symbol>
  <symbol id="icon-multiple" viewBox="0 0 32 32">
    <path d="M6.188 21.021h-0.569c-2.489 0-4.551-1.991-4.551-4.487v-10.98c0-2.489 2.062-4.487 4.558-4.487h11.072c2.496 0 4.558 1.998 4.558 4.487v0.398c3.193 0 5.092 1.7 5.092 5.020 2.525 0 4.587 1.963 4.587 4.487v10.944c0 2.496-2.027 4.523-4.523 4.523h-11.179c-2.46 0-4.487-2.027-4.487-4.523v-0.533c-2.596-0.235-4.558-1.7-4.558-4.459v-0.391zM24.648 10.981v-0.533c0-1.564-1.294-2.795-2.83-2.795h-11.108c-1.564 0-2.859 1.23-2.859 2.795v10.972c0 1.799 1.23 2.596 2.894 2.759v-8.711c0-2.46 2.027-4.487 4.487-4.487h9.415zM26.412 12.645h-11.179c-1.529 0-2.795 1.266-2.795 2.83v10.944c0 1.564 1.266 2.83 2.795 2.83h11.172c1.564 0 2.83-1.266 2.83-2.83v-10.951c0-1.564-1.259-2.823-2.823-2.823zM19.557 5.96v-0.398c0-1.564-1.294-2.795-2.859-2.795h-11.072c-1.564 0-2.859 1.23-2.859 2.795v10.972c0 1.564 1.294 2.795 2.859 2.795h0.569v-8.882c0-2.496 2.062-4.487 4.523-4.487h8.839z"></path>
  </symbol>
  <symbol id="icon-chevron-right" viewBox="0 0 20 32">
    <path d="M0.355 0.325c0.473-0.434 1.241-0.434 1.714 0l16.242 14.889c0.473 0.434 0.473 1.137 0 1.571l-16.242 14.889c-0.473 0.434-1.241 0.434-1.714 0s-0.473-1.137 0-1.571l15.385-14.103-15.385-14.103c-0.473-0.434-0.473-1.137 0-1.571z"></path>
  </symbol>
  <symbol id="icon-play-triangle" viewBox="0 0 32 32">
    <path d="M31.093 14.605l-28.445-14.4c-0.551-0.278-1.223-0.272-1.767 0.013-0.548 0.288-0.882 0.813-0.882 1.382v28.8c0 0.57 0.334 1.094 0.882 1.382 0.277 0.144 0.587 0.218 0.896 0.218 0.299 0 0.601-0.067 0.871-0.205l28.445-14.4c0.558-0.285 0.907-0.816 0.907-1.395s-0.348-1.11-0.907-1.395z"></path>
  </symbol>
</defs>
</svg>
